# File created by Blade
# Date/Time:  Thu Jan 22 19:01:15 2015
# Frame Rate: 120.000 fps
#------------------------------------------------------
:FULLY-SPECIFIED
:DEGREES
2070
root -2.915180 33.174733 0.254355 8.401268 0.684600 2.832002
RightUpLeg 0.055891 -6.496704 -1.834902
RightLeg -0.837149 -0.000000 0.000000
RightFoot -11.761842 -5.633073 3.487650
RightToeBase 5.559763 -0.000000 -0.000000
LeftUpLeg -0.351406 3.500448 1.348345
LeftLeg -0.537597 -0.000000 0.000000
LeftFoot -9.265515 -1.002705 -10.188248
LeftToeBase 7.342128 -0.000000 -0.000000
Spine -13.451193 -7.981717 -2.602151
RightShoulder -22.390880 12.151309 -48.895138
RightArm 105.646041 67.137932 106.350342
RightForeArm 22.056304 -0.000000 116.986142
RightHand 19.380192 -0.000000 -21.241639
RightHandThumb1 -24.326973 -0.000000 -32.862282
LeftShoulder -15.505245 18.246519 11.765745
LeftArm -178.021817 66.428643 -266.878604
LeftForeArm 32.659177 -0.000000 129.859483
LeftHand -30.504559 -0.000000 -25.476292
LeftHandThumb1 -26.253704 0.000000 33.147579
Head 17.589806 10.849034 7.130663
2071
root -2.910370 33.169467 0.264863 8.370915 0.652381 2.848587
RightUpLeg 0.096750 -6.444009 -1.868823
RightLeg -0.825198 -0.000000 0.000000
RightFoot -11.823309 -5.658027 3.489353
RightToeBase 5.582329 -0.000000 -0.000000
LeftUpLeg -0.297798 3.484613 1.323276
LeftLeg -0.530212 -0.000000 0.000000
LeftFoot -9.324114 -0.967612 -10.193908
LeftToeBase 7.357482 -0.000000 -0.000000
Spine -13.405683 -8.101583 -2.589499
RightShoulder -22.410058 11.816886 -48.736780
RightArm 104.834955 67.377689 105.495058
RightForeArm 20.377502 -0.000000 114.256163
RightHand 19.043880 -0.000000 -21.510288
RightHandThumb1 -24.326973 -0.000000 -32.862282
LeftShoulder -15.667653 18.803060 11.699930
LeftArm -176.930015 67.129907 -265.295039
LeftForeArm 33.578355 -0.000000 129.719159
LeftHand -30.657903 -0.000000 -26.532866
LeftHandThumb1 -26.253704 0.000000 33.147579
Head 17.527072 10.895617 7.328161
2072
root -2.906413 33.163483 0.278335 8.322759 0.593192 2.847225
RightUpLeg 0.152953 -6.408828 -1.889177
RightLeg -0.810341 -0.000000 0.000000
RightFoot -11.880918 -5.638857 3.479361
RightToeBase 5.527994 -0.000000 -0.000000
LeftUpLeg -0.215327 3.499553 1.317357
LeftLeg -0.525305 -0.000000 0.000000
LeftFoot -9.397543 -0.951754 -10.198650
LeftToeBase 7.355513 -0.000000 -0.000000
Spine -13.351177 -8.220874 -2.557211
RightShoulder -22.327414 11.303609 -48.520851
RightArm 104.329088 67.679947 104.830684
RightForeArm 18.602538 -0.000000 111.521429
RightHand 18.593252 0.000000 -22.289915
RightHandThumb1 -24.326973 -0.000000 -32.862282
LeftShoulder -15.886664 19.494292 11.623702
LeftArm -175.939367 67.937906 -263.763934
LeftForeArm 34.327353 0.000000 129.585418
LeftHand -30.939358 -0.000000 -27.680086
LeftHandThumb1 -26.253704 0.000000 33.147579
Head 17.484358 10.999910 7.579283
2073
root -2.905585 33.159332 0.284344 8.304927 0.536608 2.847459
RightUpLeg 0.160631 -6.357298 -1.898216
RightLeg -0.787444 -0.000000 0.000000
RightFoot -11.922230 -5.646393 3.479209
RightToeBase 5.566799 -0.000000 -0.000000
LeftUpLeg -0.198760 3.487472 1.311779
LeftLeg -0.475791 -0.000000 0.000000
LeftFoot -9.479985 -0.902854 -10.194012
LeftToeBase 7.402829 -0.000000 -0.000000
Spine -13.311811 -8.359451 -2.569705
RightShoulder -22.259003 10.810187 -48.227121
RightArm 103.683987 67.943213 103.922620
RightForeArm 17.044229 -0.000000 108.701220
RightHand 18.255834 -0.000000 -22.873512
RightHandThumb1 -24.326973 -0.000000 -32.862282
LeftShoulder -16.125652 20.173648 11.599115
LeftArm -174.833197 68.589191 -262.162599
LeftForeArm 35.789694 -0.000000 129.379600
LeftHand -30.731347 -0.000000 -29.116344
LeftHandThumb1 -26.253704 0.000000 33.147579
Head 17.385708 10.842866 7.777513
2074
root -2.904726 33.156072 0.288082 8.288744 0.450859 2.832239
RightUpLeg 0.141314 -6.263071 -1.897645
RightLeg -0.729508 -0.000000 0.000000
RightFoot -11.965123 -5.659281 3.459167
RightToeBase 5.530026 -0.000000 -0.000000
LeftUpLeg -0.196699 3.494018 1.317443
LeftLeg -0.401005 -0.000000 0.000000
LeftFoot -9.574019 -0.849450 -10.200645
LeftToeBase 7.338622 -0.000000 -0.000000
Spine -13.255671 -8.414666 -2.550885
RightShoulder -22.305715 10.454882 -48.090334
RightArm 102.367083 68.234642 102.390293
RightForeArm 15.859385 -0.000000 105.871210
RightHand 18.028178 -0.000000 -23.439188
RightHandThumb1 -24.326973 -0.000000 -32.862282
LeftShoulder -16.327829 20.856867 11.604636
LeftArm -173.573835 69.127265 -260.489136
LeftForeArm 37.090040 -0.000000 129.068341
LeftHand -31.754181 0.000000 -29.921789
LeftHandThumb1 -26.253704 0.000000 33.147579
Head 17.319012 10.908363 8.051854
2075
root -2.904934 33.152226 0.294934 8.252741 0.327226 2.800890
RightUpLeg 0.136637 -6.165199 -1.885372
RightLeg -0.666969 -0.000000 0.000000
RightFoot -11.999130 -5.638365 3.443996
RightToeBase 5.542013 -0.000000 -0.000000
LeftUpLeg -0.158650 3.534848 1.332563
LeftLeg -0.327491 -0.000000 0.000000
LeftFoot -9.703161 -0.768923 -10.228232
LeftToeBase 7.415145 -0.000000 -0.000000
Spine -13.201328 -8.366621 -2.548160
RightShoulder -22.378974 10.023184 -47.941899
RightArm 100.827277 68.484412 100.537225
RightForeArm 14.620028 -0.000000 103.007259
RightHand 17.630365 -0.000000 -24.352736
RightHandThumb1 -24.326973 -0.000000 -32.862282
LeftShoulder -16.486795 21.611298 11.670956
LeftArm -172.571604 69.643388 -259.103672
LeftForeArm 38.202429 -0.000000 128.750058
LeftHand -32.536193 -0.000000 -29.707787
LeftHandThumb1 -26.253704 0.000000 33.147579
Head 17.261923 10.815416 8.318982
2076
root -2.902917 33.148658 0.301838 8.185385 0.171498 2.782838
RightUpLeg 0.150434 -6.066622 -1.898782
RightLeg -0.586492 -0.000000 0.000000
RightFoot -12.047257 -5.584426 3.442708
RightToeBase 5.522551 -0.000000 -0.000000
LeftUpLeg -0.083640 3.616144 1.330062
LeftLeg -0.263704 -0.000000 0.000000
LeftFoot -9.791093 -0.705209 -10.199060
LeftToeBase 7.364937 -0.000000 -0.000000
Spine -13.119260 -8.285668 -2.566414
RightShoulder -22.429242 9.739683 -47.855725
RightArm 99.047326 68.731329 98.489428
RightForeArm 13.887150 0.000000 100.186368
RightHand 17.372719 -0.000000 -24.522890
RightHandThumb1 -24.326973 -0.000000 -32.862282
LeftShoulder -16.542714 22.217753 11.810742
LeftArm -170.779654 70.471378 -256.983525
LeftForeArm 38.849884 0.000000 128.421692
LeftHand -32.851419 0.000000 -32.002757
LeftHandThumb1 -26.253704 0.000000 33.147579
Head 17.249889 10.661975 8.537543
2077
root -2.901675 33.146277 0.310166 8.080857 0.004601 2.750362
RightUpLeg 0.202762 -6.015514 -1.902169
RightLeg -0.510897 -0.000000 0.000000
RightFoot -12.075418 -5.458767 3.428862
RightToeBase 5.541911 -0.000000 -0.000000
LeftUpLeg 0.025625 3.691609 1.340216
LeftLeg -0.184187 -0.000000 0.000000
LeftFoot -9.903157 -0.600678 -10.184006
LeftToeBase 7.314425 -0.000000 -0.000000
Spine -12.975617 -8.272976 -2.567975
RightShoulder -22.465099 9.609680 -47.749630
RightArm 96.959596 68.930337 96.057369
RightForeArm 13.502158 0.000000 97.358304
RightHand 17.167605 -0.000000 -24.538052
RightHandThumb1 -24.326973 -0.000000 -32.862282
LeftShoulder -16.681192 22.773632 11.957519
LeftArm -168.558446 71.612771 -254.436397
LeftForeArm 38.672674 -0.000000 127.907064
LeftHand -31.837915 -0.000000 -34.500160
LeftHandThumb1 -26.253704 0.000000 33.147579
Head 17.190673 10.637715 8.851678
2078
root -2.898667 33.144179 0.317251 7.995163 -0.186937 2.729840
RightUpLeg 0.220986 -5.909223 -1.920923
RightLeg -0.415249 -0.000000 0.000000
RightFoot -12.117242 -5.374037 3.411637
RightToeBase 5.573193 -0.000000 -0.000000
LeftUpLeg 0.113668 3.771293 1.337659
LeftLeg -0.093197 -0.000000 0.000000
LeftFoot -10.004514 -0.520631 -10.188860
LeftToeBase 7.318661 -0.000000 -0.000000
Spine -12.866197 -8.143907 -2.592849
RightShoulder -22.544122 9.387365 -47.677760
RightArm 94.979449 69.042313 93.791046
RightForeArm 13.291984 0.000000 94.662910
RightHand 16.835355 0.000000 -23.916361
RightHandThumb1 -24.326973 -0.000000 -32.862282
LeftShoulder -16.717862 23.328224 12.112766
LeftArm -166.405290 72.566674 -251.992832
LeftForeArm 38.923640 -0.000000 127.475722
LeftHand -30.987517 0.000000 -37.316600
LeftHandThumb1 -26.253704 0.000000 33.147579
Head 17.150386 10.503840 9.103258
2079
root -2.898814 33.142143 0.325186 7.877252 -0.390584 2.689711
RightUpLeg 0.277086 -5.811983 -1.918040
RightLeg -0.339656 -0.000000 0.000000
RightFoot -12.125280 -5.273300 3.394274
RightToeBase 5.519819 -0.000000 -0.000000
LeftUpLeg 0.231611 3.880667 1.350044
LeftLeg 0.007863 -0.000000 -0.000000
LeftFoot -10.137245 -0.398820 -10.148014
LeftToeBase 7.310991 -0.000000 -0.000000
Spine -12.711288 -7.886424 -2.628546
RightShoulder -22.695678 9.171355 -47.682279
RightArm 92.828243 69.107452 91.407831
RightForeArm 13.300604 0.000000 92.013983
RightHand 16.745878 -0.000000 -23.098110
RightHandThumb1 -24.326973 -0.000000 -32.862282
LeftShoulder -16.679764 23.834200 12.285257
LeftArm -164.541427 73.281592 -249.797429
LeftForeArm 39.306206 -0.000000 127.079930
LeftHand -30.464101 -0.000000 -38.860526
LeftHandThumb1 -26.253704 0.000000 33.147579
Head 17.094893 10.340988 9.362054
2080
root -2.897704 33.141352 0.327650 7.785363 -0.584514 2.651381
RightUpLeg 0.285767 -5.711969 -1.918837
RightLeg -0.229736 -0.000000 0.000000
RightFoot -12.155112 -5.171117 3.371782
RightToeBase 5.512599 -0.000000 -0.000000
LeftUpLeg 0.300747 4.009339 1.361504
LeftLeg 0.134359 -0.000000 -0.000000
LeftFoot -10.260786 -0.326237 -10.148988
LeftToeBase 7.257189 -0.000000 -0.000000
Spine -12.608732 -7.774524 -2.628138
RightShoulder -22.697251 9.031966 -47.615896
RightArm 90.755788 69.140379 89.038444
RightForeArm 13.345034 -0.000000 89.482251
RightHand 16.406951 -0.000000 -22.108635
RightHandThumb1 -24.326973 -0.000000 -32.862282
LeftShoulder -16.763733 24.321743 12.400833
LeftArm -162.728645 73.815419 -247.679111
LeftForeArm 39.868401 -0.000000 126.738456
LeftHand -30.272966 -0.000000 -39.494659
LeftHandThumb1 -26.253704 0.000000 33.147579
Head 17.155591 10.289846 9.597187
2081
root -2.896564 33.140201 0.328815 7.702591 -0.773474 2.615359
RightUpLeg 0.278158 -5.608901 -1.915475
RightLeg -0.109398 -0.000000 0.000000
RightFoot -12.190988 -5.075903 3.405728
RightToeBase 5.523296 -0.000000 -0.000000
LeftUpLeg 0.353772 4.097088 1.371057
LeftLeg 0.268579 -0.000000 -0.000000
LeftFoot -10.395930 -0.213061 -10.131399
LeftToeBase 7.288761 -0.000000 -0.000000
Spine -12.507706 -7.750378 -2.611908
RightShoulder -22.648457 8.935681 -47.542222
RightArm 88.662074 69.127508 86.685976
RightForeArm 13.668610 -0.000000 87.105490
RightHand 16.297259 -0.000000 -21.362832
RightHandThumb1 -24.326973 -0.000000 -32.862282
LeftShoulder -16.895761 24.702172 12.525394
LeftArm -160.572174 74.331541 -245.228121
LeftForeArm 40.757055 -0.000000 126.407517
LeftHand -30.137601 -0.000000 -40.180784
LeftHandThumb1 -26.253704 0.000000 33.147579
Head 17.202446 10.352403 9.847495
